HIERARCHY
ROOT root
{
	OFFSET	0	13.1	24.9
	CHANNELS 6  Xposition Yposition Zposition Xrotation Yrotation Zrotation
	JOINT spine_1
	{
		OFFSET	0	9.99999	0
		CHANNELS 3  Xrotation Yrotation Zrotation
		JOINT spine_2
		{
			OFFSET	0	112	-10
			CHANNELS 3  Xrotation Yrotation Zrotation
			JOINT spine_3
			{
				OFFSET	0	206.5	19.3
				CHANNELS 3  Xrotation Yrotation Zrotation
				JOINT spine_4
				{
					OFFSET	0	110.4	14.6
					CHANNELS 3  Xrotation Yrotation Zrotation
					JOINT neck_1
					{
						OFFSET	0	71.8	-50.3
						CHANNELS 3  Xrotation Yrotation Zrotation
						JOINT neck_2
						{
							OFFSET	0	86.2	-25.8
							CHANNELS 3  Xrotation Yrotation Zrotation
							JOINT head_ee
							{
								OFFSET	0	179.8	-8.7
								CHANNELS 3  Xrotation Yrotation Zrotation
								End Site
								{
									OFFSET	1	0	0
								}
							}
						}
					}
					JOINT left_clavicle
					{
						OFFSET	-43.2	22.4	-70.8
						CHANNELS 3  Xrotation Yrotation Zrotation
						JOINT left_shoulder
						{
							OFFSET	-93.9	-5.79999	48.7
							CHANNELS 3  Xrotation Yrotation Zrotation
							JOINT left_elbow
							{
								OFFSET	-291.4	-30.8	15.2
								CHANNELS 3  Xrotation Yrotation Zrotation
								JOINT left_lowarm_twist
								{
									OFFSET	-110.7	-3.89999	13.6
									CHANNELS 3  Xrotation Yrotation Zrotation
									JOINT left_hand
									{
										OFFSET	-110.7	-3.89999	13.6
										CHANNELS 3  Xrotation Yrotation Zrotation
										JOINT left_ee
										{
											OFFSET	-80.8	-5.10001	12.1
											CHANNELS 3  Xrotation Yrotation Zrotation
											End Site
											{
												OFFSET	1	0	0
											}
										}
									}
								}
							}
						}
					}
					JOINT right_clavicle
					{
						OFFSET	43.2	22.4	-70.8
						CHANNELS 3  Xrotation Yrotation Zrotation
						JOINT right_shoulder
						{
							OFFSET	93.9	-5.79999	48.7
							CHANNELS 3  Xrotation Yrotation Zrotation
							JOINT right_elbow
							{
								OFFSET	291.4	-30.8	15.2
								CHANNELS 3  Xrotation Yrotation Zrotation
								JOINT right_lowarm_twist
								{
									OFFSET	110.7	-3.89999	13.6
									CHANNELS 3  Xrotation Yrotation Zrotation
									JOINT right_hand
									{
										OFFSET	110.7	-3.89999	13.6
										CHANNELS 3  Xrotation Yrotation Zrotation
										JOINT right_ee
										{
											OFFSET	80.8	-5.10001	12.1
											CHANNELS 3  Xrotation Yrotation Zrotation
											End Site
											{
												OFFSET	1	0	0
											}
										}
									}
								}
							}
						}
					}
				}
			}
		}
	}
	JOINT left_hip
	{
		OFFSET	-82.8	-127.5	0.300001
		CHANNELS 3  Xrotation Yrotation Zrotation
		JOINT left_knee
		{
			OFFSET	-28.2	-396.7	2.2
			CHANNELS 3  Xrotation Yrotation Zrotation
			JOINT left_ankle
			{
				OFFSET	-11.7	-411.3	35.4
				CHANNELS 3  Xrotation Yrotation Zrotation
				JOINT left_toes
				{
					OFFSET	0	-60	-88.6
					CHANNELS 3  Xrotation Yrotation Zrotation
					JOINT left_foot_ee
					{
						OFFSET	-22.5	-16.5	-42.2
						CHANNELS 3  Xrotation Yrotation Zrotation
						End Site
						{
							OFFSET	1	0	0
						}
					}
				}
			}
		}
	}
	JOINT right_hip
	{
		OFFSET	82.8	-127.5	0.300001
		CHANNELS 3  Xrotation Yrotation Zrotation
		JOINT right_knee
		{
			OFFSET	28.2	-396.7	2.2
			CHANNELS 3  Xrotation Yrotation Zrotation
			JOINT right_ankle
			{
				OFFSET	11.7	-411.3	35.4
				CHANNELS 3  Xrotation Yrotation Zrotation
				JOINT right_toes
				{
					OFFSET	0	-60	-88.6
					CHANNELS 3  Xrotation Yrotation Zrotation
					JOINT right_foot_ee
					{
						OFFSET	22.5	-16.5	-42.2
						CHANNELS 3  Xrotation Yrotation Zrotation
						End Site
						{
							OFFSET	1	0	0
						}
					}
				}
			}
		}
	}
}
MOTION
Frames: 9
Frame Time: 0.02
2996.13 712.171 -1471.75 -12.1855 62.3645 10.2878 2.70815 0.312478 0.350314 2.70817 0.289553 0.369488 2.71005 0.225162 0.411903 2.70993 0.287388 0.371174 -6.65251 21.9944 6.37957 -6.53015 36.3867 10.7682 -0.0 0.0 -0.0 7.09644 13.9497 13.3461 -7.7514 -0.171127 58.003 2.52471 -51.3468 1.21377 -70.5285 -6.61349 5.30669 2.96036 19.8678 26.737 -0.0 0.0 -0.0 10.6219 4.38636 -21.139 -17.2278 25.6575 -67.607 0.149866 4.24591 -0.00555549 -49.5983 4.02479 -4.66173 -8.37884 -29.6329 36.1166 0.0 0.0 0.0 8.93195 23.3983 2.40536 -17.1149 0.318828 2.59734 36.1326 17.2291 -4.6035 -37.2368 0.0 0.0 -0.0 0.0 -0.0 29.9246 23.3542 -2.3996 -53.0668 1.49962 -7.71877 -23.044 -18.3573 -3.51648 32.668 -0.0 -0.0 0.0 0.0 0.0 
2987.29 713.078 -1467.06 -13.2794 62.2122 11.5239 2.67959 0.35608 0.21656 2.67955 0.341578 0.238779 2.68099 0.297733 0.291626 2.68104 0.340054 0.240945 -5.6472 22.4204 5.53275 -5.38561 37.5105 9.68235 -0.0 0.0 -0.0 7.13829 13.4409 13.448 -6.04647 -2.28755 56.9282 2.79425 -54.1439 1.42837 -70.6983 -6.63517 5.30798 2.66486 19.419 24.6261 -0.0 0.0 -0.0 10.5502 4.23823 -20.9809 -17.3381 21.2647 -67.2488 0.145664 4.12729 -0.00524874 -47.8939 3.82704 -4.56824 -8.46412 -29.843 36.4642 0.0 0.0 0.0 7.8806 24.0664 3.338 -15.0385 0.321732 2.27879 35.0436 13.8104 -4.44829 -39.3114 0.0 0.0 -0.0 0.0 -0.0 30.1424 20.9968 -1.73259 -48.3793 1.08396 -7.12871 -22.7916 -15.2648 -3.45109 35.1341 -0.0 -0.0 0.0 0.0 0.0 
2977.27 709.633 -1465.22 -16.2425 63.3468 14.7069 2.74769 0.15699 0.0597119 2.74768 0.152872 0.0695806 2.74787 0.13948 0.0935771 2.74789 0.152508 0.0703744 -4.87255 22.7576 5.47792 -4.47829 37.9535 9.42295 -0.0 0.0 -0.0 7.26219 15.1467 13.5469 -3.74658 -5.87593 56.2059 3.09198 -56.8483 1.6738 -69.6554 -6.50206 5.29903 2.10947 20.3328 21.2271 -0.0 0.0 -0.0 10.6532 4.05759 -21.1961 -19.5742 19.3482 -65.5329 0.16711 4.73235 -0.00690513 -46.872 3.70983 -4.50938 -8.64723 -30.249 37.2631 0.0 0.0 0.0 3.27029 22.7441 5.44336 -0.470487 0.0190869 0.0696784 28.5966 13.4397 -3.76532 -40.2698 0.0 0.0 -0.0 0.0 -0.0 34.7863 18.0903 -3.62266 -44.8919 0.806949 -6.6691 -22.15 -14.3796 -3.3481 37.8315 -0.0 -0.0 0.0 0.0 0.0 
2969.73 713.908 -1460.45 -17.7794 64.256 16.3966 2.55296 0.0584959 0.0272062 2.55296 0.0566462 0.0308733 2.55299 0.0507183 0.0398698 2.553 0.0563785 0.0313594 -5.1166 22.6649 4.731 -4.77097 38.405 8.74379 -0.0 0.0 -0.0 7.98837 12.0276 15.0186 -2.53436 -6.4016 54.4809 3.13802 -57.2345 1.71243 -69.329 -6.46042 5.29573 1.7273 16.9935 17.7635 -0.0 0.0 -0.0 10.5807 4.87816 -21.0641 -18.8735 15.9033 -65.8886 0.150916 4.27555 -0.00563343 -45.853 3.59402 -4.44863 -8.43441 -29.8525 36.242 0.0 0.0 0.0 2.79497 24.3739 5.6882 2.62016 -0.116732 -0.385066 24.342 7.84096 -3.25471 -40.1444 0.0 0.0 -0.0 0.0 -0.0 37.3633 17.5555 -4.60602 -38.0721 0.348692 -5.72649 -15.7875 -9.19215 -2.36805 32.4839 -0.0 -0.0 0.0 0.0 0.0 
2956.21 710.661 -1458.76 -17.326 62.8214 16.0366 2.44229 0.252823 -0.071033 2.44226 0.256831 -0.0548012 2.44202 0.262391 -0.0107868 2.44211 0.257394 -0.0520914 -5.18522 22.1351 6.09384 -4.85195 36.4249 10.0359 -0.0 0.0 -0.0 7.85666 11.8041 14.8023 -1.11836 -8.22239 53.4641 3.2596 -58.2167 1.81523 -67.7383 -6.25778 5.27623 1.26674 14.2232 13.8695 -0.0 0.0 -0.0 11.1145 5.25854 -22.2305 -20.0353 12.7663 -63.783 0.154079 4.36481 -0.00587176 -44.8297 3.47882 -4.38556 -8.50845 -30.1229 36.4329 0.0 0.0 0.0 1.16719 24.2624 6.2984 5.68154 -0.275301 -0.827805 23.543 6.05651 -3.16033 -40.1546 0.0 0.0 -0.0 0.0 -0.0 39.1031 14.8021 -5.81657 -33.8022 0.120245 -5.11164 -15.2155 -6.69363 -2.28259 30.4951 -0.0 -0.0 0.0 0.0 0.0 
2940.23 712.217 -1455.16 -15.9495 63.4295 14.5083 2.17296 0.111797 -0.0234512 2.17295 0.113063 -0.0162897 2.17292 0.114176 0.00351079 2.17294 0.113298 -0.0145653 -5.6626 22.6986 5.18375 -5.40291 38.2927 9.39392 -0.0 0.0 -0.0 8.05074 11.3545 15.1784 -0.376527 -9.40305 52.9046 3.39283 -59.2339 1.92911 -68.4427 -6.34745 5.28556 1.01561 15.1517 12.5861 -0.0 0.0 -0.0 11.0915 5.69904 -22.1926 -19.6084 10.9837 -63.7073 0.142198 4.02939 -0.00500222 -43.4902 3.32976 -4.29991 -8.31686 -29.9911 35.2503 0.0 0.0 0.0 -0.765109 24.1516 7.10478 7.7472 -0.395598 -1.12158 13.3274 2.39752 -1.87945 -39.7136 0.0 0.0 -0.0 0.0 -0.0 40.6159 14.1036 -6.03997 -31.5526 0.0185255 -4.78147 -13.1245 -4.20917 -1.97001 30.8232 -0.0 -0.0 0.0 0.0 0.0 
2921.65 709.682 -1454.35 -14.7543 62.5366 13.6341 1.97428 0.129447 -0.175645 1.97428 0.140361 -0.167052 1.97387 0.167626 -0.139676 1.97387 0.143463 -0.164396 -4.94732 23.5512 6.01824 -4.52861 39.0617 10.1208 -0.0 0.0 -0.0 8.19926 13.3975 15.2783 0.472709 -11.7585 52.6216 3.46966 -59.7941 1.99532 -67.2953 -6.20144 5.26979 0.635913 15.1784 10.1916 -0.0 0.0 -0.0 11.2406 6.40114 -22.5361 -21.0136 9.05419 -62.8192 0.187466 5.30569 -0.00868604 -45.3165 3.53348 -4.41582 -8.57043 -30.1567 36.8306 0.0 0.0 0.0 -2.20058 27.648 8.27853 2.33154 -0.10301 -0.342911 26.7558 2.09362 -3.54184 -39.608 0.0 0.0 -0.0 0.0 -0.0 38.4171 12.8433 -6.43832 -20.8112 -0.285113 -3.16339 -16.7518 -0.133356 -2.54288 28.4774 -0.0 -0.0 0.0 0.0 0.0 
2900.2 707.565 -1448.0 -13.9958 61.7136 12.2077 1.86529 0.276061 -0.0226767 1.86525 0.276945 -0.00506413 1.86522 0.273413 0.0443804 1.86533 0.27699 0.000642681 -3.59521 21.9049 5.64834 -3.05861 35.8448 9.06239 -0.0 0.0 -0.0 8.40536 14.648 15.5192 1.1683 -12.1844 52.7903 3.63744 -60.9551 2.14117 -67.9553 -6.2854 5.27922 0.962377 13.585 11.6864 -0.0 0.0 -0.0 11.3914 6.38397 -22.8673 -21.9137 7.84357 -61.7447 0.181522 5.13837 -0.00814499 -42.1457 3.1822 -4.21047 -8.09831 -30.0081 33.7309 0.0 0.0 0.0 -4.16364 25.8241 9.8982 -0.528973 0.0214195 0.0783507 30.4194 1.48793 -3.94539 -39.1794 0.0 0.0 -0.0 0.0 -0.0 38.5217 13.0005 -6.64631 -17.2584 -0.318201 -2.61935 -18.2228 2.1634 -2.78762 28.4984 -0.0 -0.0 0.0 0.0 0.0 
2880.98 705.491 -1449.63 -12.3711 61.4949 10.7463 1.77316 0.344845 -0.149028 1.7731 0.353629 -0.126782 1.77231 0.370664 -0.0611167 1.77248 0.35636 -0.11889 -4.89646 21.4806 5.31977 -4.55404 35.6906 9.06002 -0.0 0.0 -0.0 8.17872 15.4994 15.0532 1.2224 -14.257 53.2894 3.75042 -61.6919 2.2403 -67.7556 -6.25998 5.27647 0.931721 11.6316 10.7742 -0.0 0.0 -0.0 11.3577 6.69093 -22.8 -23.0606 6.65554 -62.1593 0.199871 5.65457 -0.00987068 -41.0728 3.06597 -4.13664 -7.88455 -29.5739 32.7815 0.0 0.0 0.0 -4.6775 24.958 9.47075 -5.73765 0.193353 0.858965 33.5283 0.237535 -4.27291 -39.2493 0.0 0.0 -0.0 0.0 -0.0 36.3778 11.7627 -6.79524 -8.05154 -0.246817 -1.21001 -22.1606 5.7145 -3.44104 27.9083 -0.0 -0.0 0.0 0.0 0.0 
